<?xml version="1.0"?>
<svg width="800" height="800" xmlns="http://www.w3.org/2000/svg" xmlns:svg="http://www.w3.org/2000/svg" xmlns:xlink="http://www.w3.org/1999/xlink">
 <g>
  <title>Layer 1</title>
  <g id="svg_1">
   <defs fill="#F5F7F9">
    <rect fill="#F5F7F9" height="800" width="800" id="SVGID_1_"/>
   </defs>
   <clipPath fill="#F5F7F9" id="SVGID_2_">
    <use fill="#F5F7F9" id="svg_2" xlink:href="#SVGID_1_"/>
   </clipPath>
   <path fill="#F5F7F9" id="svg_3" d="m400.003,72.068c106.804,0 119.451,0.408 161.633,2.332c38.997,1.781 60.178,8.298 74.274,13.774c18.673,7.257 31.996,15.926 45.993,29.923c13.999,13.997 22.669,27.317 29.923,45.99c5.477,14.097 11.993,35.277 13.771,74.275c1.924,42.181 2.332,54.829 2.332,161.636s-0.408,119.457 -2.332,161.636c-1.778,39 -8.295,60.181 -13.771,74.274c-7.254,18.669 -15.924,31.993 -29.923,45.993c-13.997,13.996 -27.32,22.666 -45.993,29.923c-14.097,5.476 -35.277,11.993 -74.274,13.771c-42.175,1.927 -54.82,2.331 -161.633,2.331c-106.815,0 -119.46,-0.404 -161.636,-2.331c-38.997,-1.778 -60.178,-8.296 -74.275,-13.771c-18.669,-7.257 -31.996,-15.927 -45.993,-29.923c-13.996,-14 -22.663,-27.324 -29.92,-45.993c-5.476,-14.094 -11.996,-35.274 -13.774,-74.274c-1.924,-42.179 -2.332,-54.829 -2.332,-161.636s0.408,-119.455 2.332,-161.636c1.778,-38.998 8.298,-60.178 13.774,-74.275c7.257,-18.672 15.924,-31.993 29.92,-45.99c13.997,-13.997 27.324,-22.666 45.993,-29.923c14.097,-5.476 35.278,-11.994 74.275,-13.774c42.182,-1.924 54.829,-2.332 161.636,-2.332m0,-72.071c-108.636,0 -122.258,0.459 -164.92,2.408c-42.577,1.942 -71.654,8.706 -97.096,18.593c-26.304,10.222 -48.611,23.898 -70.847,46.135c-22.237,22.237 -35.917,44.547 -46.136,70.847c-9.893,25.449 -16.654,54.522 -18.596,97.1c-1.948,42.666 -2.405,56.285 -2.405,164.917c0,108.636 0.457,122.255 2.405,164.917c1.942,42.58 8.703,71.654 18.596,97.1c10.219,26.303 23.899,48.61 46.136,70.85c22.236,22.237 44.543,35.914 70.847,46.136c25.442,9.887 54.519,16.647 97.096,18.593c42.663,1.945 56.285,2.408 164.92,2.408c108.633,0 122.255,-0.463 164.917,-2.408c42.578,-1.945 71.654,-8.706 97.097,-18.593c26.304,-10.222 48.61,-23.898 70.851,-46.136c22.236,-22.239 35.913,-44.547 46.135,-70.85c9.891,-25.445 16.651,-54.52 18.594,-97.1c1.947,-42.662 2.404,-56.281 2.404,-164.917c0,-108.633 -0.457,-122.252 -2.404,-164.917c-1.942,-42.577 -8.703,-71.651 -18.594,-97.099c-10.222,-26.3 -23.898,-48.61 -46.135,-70.847c-22.24,-22.237 -44.547,-35.914 -70.851,-46.135c-25.442,-9.887 -54.519,-16.651 -97.097,-18.593c-42.662,-1.949 -56.284,-2.409 -164.917,-2.409" clip-path="url(#SVGID_2_)"/>
   <path fill="#F5F7F9" id="svg_4" d="m400.003,194.594c-113.442,0 -205.406,91.961 -205.406,205.403s91.964,205.403 205.406,205.403c113.439,0 205.403,-91.961 205.403,-205.403s-91.964,-205.403 -205.403,-205.403m0,338.735c-73.639,0 -133.335,-59.693 -133.335,-133.332s59.696,-133.333 133.335,-133.333s133.332,59.694 133.332,133.333s-59.693,133.332 -133.332,133.332" clip-path="url(#SVGID_2_)"/>
   <path fill="#F5F7F9" id="svg_5" d="m661.523,186.479c0,26.507 -21.488,47.998 -48.002,47.998c-26.508,0 -47.998,-21.491 -47.998,-47.998c0,-26.514 21.49,-48.002 47.998,-48.002c26.514,0 48.002,21.488 48.002,48.002" clip-path="url(#SVGID_2_)"/>
  </g>
 </g>
</svg>