<svg width="800" height="800" xmlns="http://www.w3.org/2000/svg" xmlns:xlink="http://www.w3.org/1999/xlink"><title>Layer 1</title><g fill="#F5F7F9"><defs><path id="a" d="M0 0h800v800H0z"/></defs><clipPath id="b"><use xlink:href="#a"/></clipPath><path d="M400.003 72.068c106.804 0 119.451.408 161.633 2.332 38.997 1.781 60.178 8.298 74.274 13.774 18.673 7.257 31.996 15.926 45.993 29.923 13.999 13.997 22.669 27.317 29.923 45.99 5.477 14.097 11.993 35.277 13.771 74.275 1.924 42.181 2.332 54.829 2.332 161.636s-.408 119.457-2.332 161.636c-1.778 39-8.295 60.181-13.771 74.274-7.254 18.669-15.924 31.993-29.923 45.993-13.997 13.996-27.32 22.666-45.993 29.923-14.097 5.476-35.277 11.993-74.274 13.771-42.175 1.927-54.82 2.331-161.633 2.331-106.815 0-119.46-.404-161.636-2.331-38.997-1.778-60.178-8.296-74.275-13.771-18.669-7.257-31.996-15.927-45.993-29.923-13.996-14-22.663-27.324-29.92-45.993-5.476-14.094-11.996-35.274-13.774-74.274-1.924-42.179-2.332-54.829-2.332-161.636s.408-119.455 2.332-161.636c1.778-38.998 8.298-60.178 13.774-74.275 7.257-18.672 15.924-31.993 29.92-45.99 13.997-13.997 27.324-22.666 45.993-29.923 14.097-5.476 35.278-11.994 74.275-13.774 42.182-1.924 54.829-2.332 161.636-2.332m0-72.071c-108.636 0-122.258.459-164.92 2.408-42.577 1.942-71.654 8.706-97.096 18.593C111.683 31.22 89.376 44.896 67.14 67.133 44.903 89.37 31.223 111.68 21.004 137.98c-9.893 25.449-16.654 54.522-18.596 97.1C.46 277.746.003 291.365.003 399.997c0 108.636.457 122.255 2.405 164.917 1.942 42.58 8.703 71.654 18.596 97.1 10.219 26.303 23.899 48.61 46.136 70.85 22.236 22.237 44.543 35.914 70.847 46.136 25.442 9.887 54.519 16.647 97.096 18.593 42.663 1.945 56.285 2.408 164.92 2.408 108.633 0 122.255-.463 164.917-2.408 42.578-1.945 71.654-8.706 97.097-18.593 26.304-10.222 48.61-23.898 70.851-46.136 22.236-22.239 35.913-44.547 46.135-70.85 9.891-25.445 16.651-54.52 18.594-97.1 1.947-42.662 2.404-56.281 2.404-164.917 0-108.633-.457-122.252-2.404-164.917-1.942-42.577-8.703-71.651-18.594-97.099-10.222-26.3-23.898-48.61-46.135-70.847-22.24-22.237-44.547-35.914-70.851-46.135-25.442-9.887-54.519-16.651-97.097-18.593C522.258.457 508.636-.003 400.003-.003" clip-path="url(#b)"/><path d="M400.003 194.594c-113.442 0-205.406 91.961-205.406 205.403S286.561 605.4 400.003 605.4c113.439 0 205.403-91.961 205.403-205.403s-91.964-205.403-205.403-205.403m0 338.735c-73.639 0-133.335-59.693-133.335-133.332s59.696-133.333 133.335-133.333 133.332 59.694 133.332 133.333-59.693 133.332-133.332 133.332m261.52-346.85c0 26.507-21.488 47.998-48.002 47.998-26.508 0-47.998-21.491-47.998-47.998 0-26.514 21.49-48.002 47.998-48.002 26.514 0 48.002 21.488 48.002 48.002" clip-path="url(#b)"/></g></svg>