<svg width="310" height="230" xmlns="http://www.w3.org/2000/svg"><title>Layer 1</title><path fill="#F5F7F9" d="M297.917 24.645c-11.19-13.302-31.85-18.728-71.306-18.728H83.386c-40.359 0-61.369 5.776-72.517 19.938C0 39.663 0 60.008 0 88.166v53.669c0 54.551 12.896 82.248 83.386 82.248h143.226c34.216 0 53.176-4.788 65.442-16.527C304.633 195.518 310 175.863 310 141.835V88.166c0-29.695-.841-50.16-12.083-63.521zm-98.896 97.765l-65.038 33.991a9.997 9.997 0 0 1-14.632-8.863V79.774A10 10 0 0 1 133.96 70.9l65.038 33.772a10 10 0 0 1 .023 17.738z" stroke="null"/></svg>